# ProBuilder 5.0.6
# https://unity3d.com/unity/features/worldbuilding/probuilder
# 23.07.2022 19:24:03

mtllib ./Arch_30.mtl
o Arch_30

g Arch_30
v -0.6000001 -0.6000003 0.2499996
v 0.4104712 -0.6000003 0.2499996
v -0.6000001 -0.6000003 -0.2500004
v 0.4104712 -0.6000003 -0.2500004
v -0.5966763 -0.474394 -0.2500004
v -0.5966763 -0.474394 0.2499996
v 0.41241 -0.5267299 -0.2500004
v 0.41241 -0.5267299 0.2499996
v -0.586715 -0.3491319 -0.2500004
v -0.586715 -0.3491319 0.2499996
v 0.418221 -0.4536604 -0.2500004
v 0.418221 -0.4536604 0.2499996
v -0.5701425 -0.2245575 -0.2500004
v -0.5701425 -0.2245575 0.2499996
v 0.4278884 -0.3809921 -0.2500004
v 0.4278884 -0.3809921 0.2499996
v -0.5470049 -0.1010121 -0.2500004
v -0.5470049 -0.1010121 0.2499996
v 0.4413848 -0.3089238 -0.2500004
v 0.4413848 -0.3089238 0.2499996
v -0.5173652 0.02116549 -0.2500004
v -0.5173652 0.02116549 0.2499996
v 0.4586749 -0.2376536 -0.2500004
v 0.4586749 -0.2376536 0.2499996
v -0.4813055 0.1416405 -0.2500004
v -0.4813055 0.1416405 0.2499996
v 0.4797096 -0.1673764 -0.2500004
v 0.4797096 -0.1673764 0.2499996
v -0.4389232 0.2600828 -0.2500004
v -0.4389232 0.2600828 0.2499996
v 0.5044324 -0.09828508 -0.2500004
v 0.5044324 -0.09828508 0.2499996
v -0.3903365 0.3761677 -0.2500004
v -0.3903365 0.3761677 0.2499996
v 0.5327752 -0.03056896 -0.2500004
v 0.5327752 -0.03056896 0.2499996
v -0.3356767 0.4895769 -0.2500004
v -0.3356767 0.4895769 0.2499996
v 0.5646601 0.03558648 -0.2500004
v 0.5646601 0.03558648 0.2499996
v -0.2750938 0.5999998 -0.2500004
v -0.2750938 0.5999998 0.2499996
v 0.6000001 0.09999979 -0.2500004
v 0.6000001 0.09999979 0.2499996

vt -0.6000001 0.2499996
vt 0.4104712 0.2499996
vt -0.6000001 -0.2500004
vt 0.4104712 -0.2500004
vt -0.2500004 -0.6156619
vt -0.2500004 -0.4900117
vt 0.2499996 -0.6156619
vt 0.2499996 -0.4900117
vt 0.2500004 -0.5156366
vt 0.2500004 -0.5889325
vt -0.2499996 -0.5156366
vt -0.2499996 -0.5889325
vt -0.2500004 -0.5202019
vt -0.2500004 -0.3945444
vt 0.2499996 -0.5202019
vt 0.2499996 -0.3945444
vt 0.2500004 -0.4190775
vt 0.2500004 -0.4923778
vt -0.2499996 -0.4190775
vt -0.2499996 -0.4923778
vt -0.2500004 -0.4234536
vt -0.2500004 -0.2977816
vt 0.2499996 -0.4234536
vt 0.2499996 -0.2977816
vt 0.2500004 -0.3212379
vt 0.2500004 -0.3945464
vt -0.2499996 -0.3212379
vt -0.2499996 -0.3945464
vt -0.2500004 -0.3256717
vt -0.2500004 -0.1999784
vt 0.2499996 -0.3256717
vt 0.2499996 -0.1999784
vt 0.2500004 -0.2223983
vt 0.2500004 -0.2957194
vt -0.2499996 -0.2223983
vt -0.2499996 -0.2957194
vt -0.2500004 -0.2271251
vt -0.2500004 -0.1014037
vt 0.2499996 -0.2271251
vt 0.2499996 -0.1014037
vt 0.2500004 -0.1228169
vt 0.2500004 -0.1961544
vt -0.2499996 -0.1228169
vt -0.2499996 -0.1961544
vt -0.2500004 -0.1280746
vt -0.2500004 -0.002318758
vt 0.2499996 -0.1280746
vt 0.2499996 -0.002318758
vt 0.2500004 -0.02279504
vt 0.2500004 -0.0961527
vt -0.2499996 -0.02279504
vt -0.2499996 -0.0961527
vt -0.2500004 -0.02879703
vt -0.2500004 0.09699976
vt 0.2499996 -0.02879703
vt 0.2499996 0.09699976
vt 0.2500004 0.07740851
vt 0.2500004 0.004027123
vt -0.2499996 0.07740851
vt -0.2499996 0.004027123
vt -0.2500004 0.07045172
vt -0.2500004 0.1962943
vt 0.2499996 0.07045172
vt 0.2499996 0.1962943
vt 0.2500004 0.1775042
vt 0.2500004 0.1040959
vt -0.2499996 0.1775042
vt -0.2499996 0.1040959
vt -0.2500004 0.1693895
vt -0.2500004 0.2952838
vt 0.2499996 0.1693895
vt 0.2499996 0.2952838
vt 0.2500004 0.2772173
vt 0.2500004 0.2037789
vt -0.2499996 0.2772173
vt -0.2499996 0.2037789
vt -0.2500004 0.267758
vt -0.2500004 0.3937084
vt 0.2499996 0.267758
vt 0.2499996 0.3937084
vt 0.2500004 0.3762756
vt 0.2500004 0.3028046
vt -0.2499996 0.3762756
vt -0.2499996 0.3028046
vt -0.47135 0.2499996
vt 0.5365138 0.2499996
vt -0.47135 -0.2500004
vt 0.5365138 -0.2500004
vt -0.6000001 -0.6000003
vt -0.5966763 -0.474394
vt 0.4104712 -0.6000003
vt 0.41241 -0.5267299
vt 0.5966763 -0.474394
vt 0.6000001 -0.6000003
vt -0.41241 -0.5267299
vt -0.4104712 -0.6000003
vt -0.586715 -0.3491319
vt 0.418221 -0.4536604
vt 0.586715 -0.3491319
vt -0.418221 -0.4536604
vt -0.5701425 -0.2245575
vt 0.4278884 -0.3809921
vt 0.5701425 -0.2245575
vt -0.4278884 -0.3809921
vt -0.5470049 -0.1010121
vt 0.4413848 -0.3089238
vt 0.5470049 -0.1010121
vt -0.4413848 -0.3089238
vt -0.5173652 0.02116549
vt 0.4586749 -0.2376536
vt 0.5173652 0.02116549
vt -0.4586749 -0.2376536
vt -0.4813055 0.1416405
vt 0.4797096 -0.1673764
vt 0.4813055 0.1416405
vt -0.4797096 -0.1673764
vt -0.4389232 0.2600828
vt 0.5044324 -0.09828508
vt 0.4389232 0.2600828
vt -0.5044324 -0.09828508
vt -0.3903365 0.3761677
vt 0.5327752 -0.03056896
vt 0.3903365 0.3761677
vt -0.5327752 -0.03056896
vt -0.3356767 0.4895769
vt 0.5646601 0.03558648
vt 0.3356767 0.4895769
vt -0.5646601 0.03558648
vt -0.2750938 0.5999998
vt 0.6000001 0.09999979
vt 0.2750938 0.5999998
vt -0.6000001 0.09999979

vn 0 -1 0
vn -0.9996501 0.02645274 0
vn -0.9986008 0.05288185 0
vn 0.9986007 -0.05288262 0
vn 0.9996501 -0.02645193 0
vn -0.9944077 0.1056094 0
vn 0.9944075 -0.1056115 0
vn -0.9874342 0.1580305 0
vn 0.9874346 -0.1580278 0
vn -0.9777032 0.2099917 0
vn 0.9777035 -0.2099901 0
vn -0.9652464 0.2613417 0
vn 0.9652461 -0.2613425 0
vn -0.9501032 0.3119359 0
vn 0.9501038 -0.3119339 0
vn -0.932323 0.3616267 0
vn 0.9323223 -0.3616285 0
vn -0.9119621 0.4102746 0
vn 0.9119608 -0.4102772 0
vn -0.8890819 0.4577481 0
vn 0.9008297 -0.4341726 0
vn -0.8767173 0.481006 0
vn 0.8767169 -0.4810068 0
vn 0.4960988 0.8682661 0
vn 0 0 1
vn 0 0 -1

usemtl ProBuilderDefault
f 3/3/1 4/4/1 2/2/1 1/1/1
f 1/7/2 6/8/3 5/6/3 3/5/2
f 8/11/4 2/12/5 4/10/5 7/9/4
f 6/15/3 10/16/6 9/14/6 5/13/3
f 12/19/7 8/20/4 7/18/4 11/17/7
f 10/23/6 14/24/8 13/22/8 9/21/6
f 16/27/9 12/28/7 11/26/7 15/25/9
f 14/31/8 18/32/10 17/30/10 13/29/8
f 20/35/11 16/36/9 15/34/9 19/33/11
f 18/39/10 22/40/12 21/38/12 17/37/10
f 24/43/13 20/44/11 19/42/11 23/41/13
f 22/47/12 26/48/14 25/46/14 21/45/12
f 28/51/15 24/52/13 23/50/13 27/49/15
f 26/55/14 30/56/16 29/54/16 25/53/14
f 32/59/17 28/60/15 27/58/15 31/57/17
f 30/63/16 34/64/18 33/62/18 29/61/16
f 36/67/19 32/68/17 31/66/17 35/65/19
f 34/71/18 38/72/20 37/70/20 33/69/18
f 40/75/21 36/76/19 35/74/19 39/73/21
f 38/79/20 42/80/22 41/78/22 37/77/20
f 44/83/23 40/84/23 39/82/23 43/81/23
f 43/87/24 41/88/24 42/86/24 44/85/24
f 2/91/25 8/92/25 6/90/25 1/89/25
f 7/95/26 4/96/26 3/94/26 5/93/26
f 8/92/25 12/98/25 10/97/25 6/90/25
f 11/100/26 7/95/26 5/93/26 9/99/26
f 12/98/25 16/102/25 14/101/25 10/97/25
f 15/104/26 11/100/26 9/99/26 13/103/26
f 16/102/25 20/106/25 18/105/25 14/101/25
f 19/108/26 15/104/26 13/103/26 17/107/26
f 20/106/25 24/110/25 22/109/25 18/105/25
f 23/112/26 19/108/26 17/107/26 21/111/26
f 24/110/25 28/114/25 26/113/25 22/109/25
f 27/116/26 23/112/26 21/111/26 25/115/26
f 28/114/25 32/118/25 30/117/25 26/113/25
f 31/120/26 27/116/26 25/115/26 29/119/26
f 32/118/25 36/122/25 34/121/25 30/117/25
f 35/124/26 31/120/26 29/119/26 33/123/26
f 36/122/25 40/126/25 38/125/25 34/121/25
f 39/128/26 35/124/26 33/123/26 37/127/26
f 40/126/25 44/130/25 42/129/25 38/125/25
f 43/132/26 39/128/26 37/127/26 41/131/26

