# ProBuilder 5.0.6
# https://unity3d.com/unity/features/worldbuilding/probuilder
# 23.07.2022 19:26:22

mtllib ./Arch_90.mtl
o Arch_90

g Arch_90
v -1.25 -1.25 0.2499998
v -0.25 -1.25 0.2499998
v -1.25 -1.25 -0.2500002
v -0.25 -1.25 -0.2500002
v -1.236305 -0.9886791 -0.2500002
v -1.236305 -0.9886791 0.2499998
v -0.2417829 -1.093208 -0.2500002
v -0.2417829 -1.093208 0.2499998
v -1.195369 -0.730221 -0.2500002
v -1.195369 -0.730221 0.2499998
v -0.2172215 -0.9381327 -0.2500002
v -0.2172215 -0.9381327 0.2499998
v -1.127641 -0.4774578 -0.2500002
v -1.127641 -0.4774578 0.2499998
v -0.1765847 -0.7864747 -0.2500002
v -0.1765847 -0.7864747 0.2499998
v -1.033864 -0.2331586 -0.2500002
v -1.033864 -0.2331586 0.2499998
v -0.1203182 -0.6398953 -0.2500002
v -0.1203182 -0.6398953 0.2499998
v -0.9150634 -2.384186E-07 -0.2500002
v -0.9150634 -2.384186E-07 0.2499998
v -0.04903793 -0.5000002 -0.2500002
v -0.04903793 -0.5000002 0.2499998
v -0.7725425 0.2194629 -0.2500002
v -0.7725425 0.2194629 0.2499998
v 0.03647447 -0.3683224 -0.2500002
v 0.03647447 -0.3683224 0.2499998
v -0.607862 0.4228263 -0.2500002
v -0.607862 0.4228263 0.2499998
v 0.1352828 -0.2463043 -0.2500002
v 0.1352828 -0.2463043 0.2499998
v -0.4228264 0.607862 -0.2500002
v -0.4228264 0.607862 0.2499998
v 0.246304 -0.135283 -0.2500002
v 0.246304 -0.135283 0.2499998
v -0.2194633 0.7725422 -0.2500002
v -0.2194633 0.7725422 0.2499998
v 0.3683219 -0.0364747 -0.2500002
v 0.3683219 -0.0364747 0.2499998
v 0 0.9150634 -0.2500002
v 0 0.9150634 0.2499998
v 0.5 0.04903793 -0.2500002
v 0.5 0.04903793 0.2499998
v 0.2331586 1.033864 -0.2500002
v 0.2331586 1.033864 0.2499998
v 0.639895 0.1203179 -0.2500002
v 0.639895 0.1203179 0.2499998
v 0.4774575 1.127641 -0.2500002
v 0.4774575 1.127641 0.2499998
v 0.7864745 0.1765846 -0.2500002
v 0.7864745 0.1765846 0.2499998
v 0.7302208 1.195369 -0.2500002
v 0.7302208 1.195369 0.2499998
v 0.9381325 0.2172213 -0.2500002
v 0.9381325 0.2172213 0.2499998
v 0.9886789 1.236305 -0.2500002
v 0.9886789 1.236305 0.2499998
v 1.093207 0.2417827 -0.2500002
v 1.093207 0.2417827 0.2499998
v 1.25 1.25 -0.2500002
v 1.25 1.25 0.2499998
v 1.25 0.2499998 -0.2500002
v 1.25 0.2499998 0.2499998

vt -1.25 0.2499998
vt -0.25 0.2499998
vt -1.25 -0.2500002
vt -0.25 -0.2500002
vt -0.2500002 -1.313707
vt -0.2500002 -1.052027
vt 0.2499998 -1.313707
vt 0.2499998 -1.052027
vt 0.2500002 -1.104363
vt 0.2500002 -1.261371
vt -0.2499998 -1.104363
vt -0.2499998 -1.261371
vt -0.2500002 -1.169908
vt -0.2500002 -0.9082277
vt 0.2499998 -1.169908
vt 0.2499998 -0.9082277
vt 0.2500002 -0.9605636
vt 0.2500002 -1.117571
vt -0.2499998 -0.9605636
vt -0.2499998 -1.117571
vt -0.2500002 -1.014723
vt -0.2500002 -0.7530434
vt 0.2499998 -1.014723
vt 0.2499998 -0.7530434
vt 0.2500002 -0.8053797
vt 0.2500002 -0.9623877
vt -0.2499998 -0.8053797
vt -0.2499998 -0.9623877
vt -0.2500002 -0.8498565
vt -0.2500002 -0.5881766
vt 0.2499998 -0.8498565
vt 0.2499998 -0.5881766
vt 0.2500002 -0.6405119
vt 0.2500002 -0.7975197
vt -0.2499998 -0.6405119
vt -0.2499998 -0.7975197
vt -0.2500002 -0.6771102
vt -0.2500002 -0.4154305
vt 0.2499998 -0.6771102
vt 0.2499998 -0.4154305
vt 0.2500002 -0.467766
vt 0.2500002 -0.624774
vt -0.2499998 -0.467766
vt -0.2499998 -0.624774
vt -0.2500002 -0.4983792
vt -0.2500002 -0.2366995
vt 0.2499998 -0.4983792
vt 0.2499998 -0.2366995
vt 0.2500002 -0.289036
vt 0.2500002 -0.4460437
vt -0.2499998 -0.289036
vt -0.2499998 -0.4460437
vt -0.2500002 -0.3156221
vt -0.2500002 -0.05394228
vt 0.2499998 -0.3156221
vt 0.2499998 -0.05394228
vt 0.2500002 -0.1062782
vt 0.2500002 -0.2632861
vt -0.2499998 -0.1062782
vt -0.2499998 -0.2632861
vt 0.1308398 -0.2500002
vt -0.1308402 -0.2500002
vt 0.1308398 0.2499998
vt -0.1308402 0.2499998
vt 0.07850373 -0.2500002
vt -0.07850407 -0.2500002
vt 0.07850373 0.2499998
vt -0.07850407 0.2499998
vt -0.05394232 -0.2500002
vt -0.3156217 -0.2500002
vt -0.05394232 0.2499998
vt -0.3156217 0.2499998
vt 0.2632854 -0.2500002
vt 0.1062776 -0.2500002
vt 0.2632854 0.2499998
vt 0.1062776 0.2499998
vt -0.2366992 -0.2500002
vt -0.4983792 -0.2500002
vt -0.2366992 0.2499998
vt -0.4983792 0.2499998
vt 0.4460434 -0.2500002
vt 0.2890354 -0.2500002
vt 0.4460434 0.2499998
vt 0.2890354 0.2499998
vt -0.4154299 -0.2500002
vt -0.6771099 -0.2500002
vt -0.4154299 0.2499998
vt -0.6771099 0.2499998
vt 0.6247739 -0.2500002
vt 0.4677661 -0.2500002
vt 0.6247739 0.2499998
vt 0.4677661 0.2499998
vt -0.5881761 -0.2500002
vt -0.8498558 -0.2500002
vt -0.5881761 0.2499998
vt -0.8498558 0.2499998
vt 0.7975194 -0.2500002
vt 0.6405115 -0.2500002
vt 0.7975194 0.2499998
vt 0.6405115 0.2499998
vt -0.7530431 -0.2500002
vt -1.014723 -0.2500002
vt -0.7530431 0.2499998
vt -1.014723 0.2499998
vt 0.9623874 -0.2500002
vt 0.8053795 -0.2500002
vt 0.9623874 0.2499998
vt 0.8053795 0.2499998
vt -0.9082275 -0.2500002
vt -1.169907 -0.2500002
vt -0.9082275 0.2499998
vt -1.169907 0.2499998
vt 1.117571 -0.2500002
vt 0.9605634 -0.2500002
vt 1.117571 0.2499998
vt 0.9605634 0.2499998
vt -1.052027 -0.2500002
vt -1.313707 -0.2500002
vt -1.052027 0.2499998
vt -1.313707 0.2499998
vt 1.261371 -0.2500002
vt 1.104363 -0.2500002
vt 1.261371 0.2499998
vt 1.104363 0.2499998
vt -0.2499998 0.2499998
vt -0.2499998 1.25
vt 0.2500002 0.2499998
vt 0.2500002 1.25
vt -1.25 -1.25
vt -1.236305 -0.9886791
vt -0.25 -1.25
vt -0.2417829 -1.093208
vt 1.236305 -0.9886791
vt 1.25 -1.25
vt 0.2417829 -1.093208
vt 0.25 -1.25
vt -1.195369 -0.730221
vt -0.2172215 -0.9381327
vt 1.195369 -0.730221
vt 0.2172215 -0.9381327
vt -1.127641 -0.4774578
vt -0.1765847 -0.7864747
vt 1.127641 -0.4774578
vt 0.1765847 -0.7864747
vt -1.033864 -0.2331586
vt -0.1203182 -0.6398953
vt 1.033864 -0.2331586
vt 0.1203182 -0.6398953
vt -0.9150634 -2.384186E-07
vt -0.04903793 -0.5000002
vt 0.9150634 -2.384186E-07
vt 0.04903793 -0.5000002
vt -0.7725425 0.2194629
vt 0.03647447 -0.3683224
vt 0.7725425 0.2194629
vt -0.03647447 -0.3683224
vt -0.607862 0.4228263
vt 0.1352828 -0.2463043
vt 0.607862 0.4228263
vt -0.1352828 -0.2463043
vt -0.4228264 0.607862
vt 0.246304 -0.135283
vt 0.4228264 0.607862
vt -0.246304 -0.135283
vt -0.2194633 0.7725422
vt 0.3683219 -0.0364747
vt 0.2194633 0.7725422
vt -0.3683219 -0.0364747
vt 0 0.9150634
vt 0.5 0.04903793
vt -0.5 0.04903793
vt 0.2331586 1.033864
vt 0.639895 0.1203179
vt -0.2331586 1.033864
vt -0.639895 0.1203179
vt 0.4774575 1.127641
vt 0.7864745 0.1765846
vt -0.4774575 1.127641
vt -0.7864745 0.1765846
vt 0.7302208 1.195369
vt 0.9381325 0.2172213
vt -0.7302208 1.195369
vt -0.9381325 0.2172213
vt 0.9886789 1.236305
vt 1.093207 0.2417827
vt -0.9886789 1.236305
vt -1.093207 0.2417827
vt 1.25 1.25
vt 1.25 0.2499998
vt -1.25 1.25

vn 0 -1 0
vn -0.9986296 0.05233587 0
vn -0.9945219 0.1045284 0
vn 0.9945219 -0.1045281 0
vn 0.9986296 -0.05233559 0
vn -0.9781477 0.2079115 0
vn 0.9781476 -0.207912 0
vn -0.9510565 0.3090171 0
vn 0.9510564 -0.3090173 0
vn -0.9135453 0.4067371 0
vn 0.9135453 -0.406737 0
vn -0.8660254 0.4999999 0
vn 0.8660254 -0.4999999 0
vn -0.8090171 0.5877852 0
vn 0.8090174 -0.5877848 0
vn -0.7431449 0.6691305 0
vn 0.7431448 -0.6691306 0
vn -0.6691309 0.7431446 0
vn 0.669131 -0.7431445 0
vn -0.5877854 0.8090169 0
vn 0.5877854 -0.8090169 0
vn -0.4999999 0.8660255 0
vn 0.4999996 -0.8660256 0
vn -0.4067367 0.9135454 0
vn 0.4067367 -0.9135454 0
vn -0.3090169 0.9510566 0
vn 0.3090172 -0.9510565 0
vn -0.2079114 0.9781477 0
vn 0.2079116 -0.9781476 0
vn -0.1045284 0.9945219 0
vn 0.1564342 -0.9876884 0
vn -0.0523359 0.9986296 0
vn 0.05233559 -0.9986296 0
vn 1 0 0
vn 0 0 1
vn 0 0 -1

usemtl ProBuilderDefault
f 3/3/1 4/4/1 2/2/1 1/1/1
f 1/7/2 6/8/3 5/6/3 3/5/2
f 8/11/4 2/12/5 4/10/5 7/9/4
f 6/15/3 10/16/6 9/14/6 5/13/3
f 12/19/7 8/20/4 7/18/4 11/17/7
f 10/23/6 14/24/8 13/22/8 9/21/6
f 16/27/9 12/28/7 11/26/7 15/25/9
f 14/31/8 18/32/10 17/30/10 13/29/8
f 20/35/11 16/36/9 15/34/9 19/33/11
f 18/39/10 22/40/12 21/38/12 17/37/10
f 24/43/13 20/44/11 19/42/11 23/41/13
f 22/47/12 26/48/14 25/46/14 21/45/12
f 28/51/15 24/52/13 23/50/13 27/49/15
f 26/55/14 30/56/16 29/54/16 25/53/14
f 32/59/17 28/60/15 27/58/15 31/57/17
f 30/63/16 34/64/18 33/62/18 29/61/16
f 36/67/19 32/68/17 31/66/17 35/65/19
f 34/71/18 38/72/20 37/70/20 33/69/18
f 40/75/21 36/76/19 35/74/19 39/73/21
f 38/79/20 42/80/22 41/78/22 37/77/20
f 44/83/23 40/84/21 39/82/21 43/81/23
f 42/87/22 46/88/24 45/86/24 41/85/22
f 48/91/25 44/92/23 43/90/23 47/89/25
f 46/95/24 50/96/26 49/94/26 45/93/24
f 52/99/27 48/100/25 47/98/25 51/97/27
f 50/103/26 54/104/28 53/102/28 49/101/26
f 56/107/29 52/108/27 51/106/27 55/105/29
f 54/111/28 58/112/30 57/110/30 53/109/28
f 60/115/31 56/116/29 55/114/29 59/113/31
f 58/119/30 62/120/32 61/118/32 57/117/30
f 64/123/33 60/124/33 59/122/33 63/121/33
f 63/127/34 61/128/34 62/126/34 64/125/34
f 2/131/35 8/132/35 6/130/35 1/129/35
f 7/135/36 4/136/36 3/134/36 5/133/36
f 8/132/35 12/138/35 10/137/35 6/130/35
f 11/140/36 7/135/36 5/133/36 9/139/36
f 12/138/35 16/142/35 14/141/35 10/137/35
f 15/144/36 11/140/36 9/139/36 13/143/36
f 16/142/35 20/146/35 18/145/35 14/141/35
f 19/148/36 15/144/36 13/143/36 17/147/36
f 20/146/35 24/150/35 22/149/35 18/145/35
f 23/152/36 19/148/36 17/147/36 21/151/36
f 24/150/35 28/154/35 26/153/35 22/149/35
f 27/156/36 23/152/36 21/151/36 25/155/36
f 28/154/35 32/158/35 30/157/35 26/153/35
f 31/160/36 27/156/36 25/155/36 29/159/36
f 32/158/35 36/162/35 34/161/35 30/157/35
f 35/164/36 31/160/36 29/159/36 33/163/36
f 36/162/35 40/166/35 38/165/35 34/161/35
f 39/168/36 35/164/36 33/163/36 37/167/36
f 40/166/35 44/170/35 42/169/35 38/165/35
f 43/171/36 39/168/36 37/167/36 41/169/36
f 44/170/35 48/173/35 46/172/35 42/169/35
f 47/175/36 43/171/36 41/169/36 45/174/36
f 48/173/35 52/177/35 50/176/35 46/172/35
f 51/179/36 47/175/36 45/174/36 49/178/36
f 52/177/35 56/181/35 54/180/35 50/176/35
f 55/183/36 51/179/36 49/178/36 53/182/36
f 56/181/35 60/185/35 58/184/35 54/180/35
f 59/187/36 55/183/36 53/182/36 57/186/36
f 60/185/35 64/189/35 62/188/35 58/184/35
f 63/1/36 59/187/36 57/186/36 61/190/36

