# ProBuilder 5.0.6
# https://unity3d.com/unity/features/worldbuilding/probuilder
# 23.07.2022 19:26:37

mtllib ./Arch_180.mtl
o Arch_180

g Arch_180
v -2.5 -1.25 0.2499998
v -1.5 -1.25 0.2499998
v -2.5 -1.25 -0.2500002
v -1.5 -1.25 -0.2500002
v -2.480287 -0.9360475 -0.2500002
v -2.480287 -0.9360475 0.2499998
v -1.488172 -1.061628 -0.2500002
v -1.488172 -1.061628 0.2499998
v -2.421458 -0.6270462 -0.2500002
v -2.421458 -0.6270462 0.2499998
v -1.452875 -0.8762277 -0.2500002
v -1.452875 -0.8762277 0.2499998
v -2.324441 -0.3278692 -0.2500002
v -2.324441 -0.3278692 0.2499998
v -1.394665 -0.6967215 -0.2500002
v -1.394665 -0.6967215 0.2499998
v -2.190767 -0.04323477 -0.2500002
v -2.190767 -0.04323477 0.2499998
v -1.31446 -0.5259408 -0.2500002
v -1.31446 -0.5259408 0.2499998
v -2.022542 0.2223684 -0.2500002
v -2.022542 0.2223684 0.2499998
v -1.213526 -0.3665791 -0.2500002
v -1.213526 -0.3665791 0.2499998
v -1.822422 0.4647514 -0.2500002
v -1.822422 0.4647514 0.2499998
v -1.093453 -0.2211493 -0.2500002
v -1.093453 -0.2211493 0.2499998
v -1.59356 0.6800915 -0.2500002
v -1.59356 0.6800915 0.2499998
v -0.956136 -0.09194517 -0.2500002
v -0.956136 -0.09194517 0.2499998
v -1.339567 0.8649929 -0.2500002
v -1.339567 0.8649929 0.2499998
v -0.8037403 0.01899564 -0.2500002
v -0.8037403 0.01899564 0.2499998
v -1.064448 1.01654 -0.2500002
v -1.064448 1.01654 0.2499998
v -0.6386688 0.1099241 -0.2500002
v -0.6386688 0.1099241 0.2499998
v -0.7725425 1.132342 -0.2500002
v -0.7725425 1.132342 0.2499998
v -0.4635255 0.1794053 -0.2500002
v -0.4635255 0.1794053 0.2499998
v -0.4684534 1.210573 -0.2500002
v -0.4684534 1.210573 0.2499998
v -0.2810721 0.2263439 -0.2500002
v -0.2810721 0.2263439 0.2499998
v -0.1569762 1.25 -0.2500002
v -0.1569762 1.25 0.2499998
v -0.09418583 0.2499998 -0.2500002
v -0.09418583 0.2499998 0.2499998
v 0.1569762 1.25 -0.2500002
v 0.1569762 1.25 0.2499998
v 0.09418559 0.2499998 -0.2500002
v 0.09418559 0.2499998 0.2499998
v 0.4684534 1.210573 -0.2500002
v 0.4684534 1.210573 0.2499998
v 0.2810719 0.2263439 -0.2500002
v 0.2810719 0.2263439 0.2499998
v 0.7725425 1.132342 -0.2500002
v 0.7725425 1.132342 0.2499998
v 0.4635253 0.1794053 -0.2500002
v 0.4635253 0.1794053 0.2499998
v 1.064448 1.01654 -0.2500002
v 1.064448 1.01654 0.2499998
v 0.6386688 0.1099241 -0.2500002
v 0.6386688 0.1099241 0.2499998
v 1.339567 0.8649933 -0.2500002
v 1.339567 0.8649933 0.2499998
v 0.80374 0.01899588 -0.2500002
v 0.80374 0.01899588 0.2499998
v 1.59356 0.6800911 -0.2500002
v 1.59356 0.6800911 0.2499998
v 0.9561362 -0.09194529 -0.2500002
v 0.9561362 -0.09194529 0.2499998
v 1.822422 0.4647511 -0.2500002
v 1.822422 0.4647511 0.2499998
v 1.093453 -0.2211493 -0.2500002
v 1.093453 -0.2211493 0.2499998
v 2.022543 0.2223682 -0.2500002
v 2.022543 0.2223682 0.2499998
v 1.213526 -0.3665792 -0.2500002
v 1.213526 -0.3665792 0.2499998
v 2.190766 -0.04323441 -0.2500002
v 2.190766 -0.04323441 0.2499998
v 1.31446 -0.5259407 -0.2500002
v 1.31446 -0.5259407 0.2499998
v 2.324441 -0.327869 -0.2500002
v 2.324441 -0.327869 0.2499998
v 1.394665 -0.6967214 -0.2500002
v 1.394665 -0.6967214 0.2499998
v 2.421458 -0.627046 -0.2500002
v 2.421458 -0.627046 0.2499998
v 1.452875 -0.8762277 -0.2500002
v 1.452875 -0.8762277 0.2499998
v 2.480287 -0.9360475 -0.2500002
v 2.480287 -0.9360475 0.2499998
v 1.488172 -1.061628 -0.2500002
v 1.488172 -1.061628 0.2499998
v 2.5 -1.25 -0.2500002
v 2.5 -1.25 0.2499998
v 1.5 -1.25 -0.2500002
v 1.5 -1.25 0.2499998

vt -2.5 0.2499998
vt -1.5 0.2499998
vt -2.5 -0.2500002
vt -1.5 -0.2500002
vt -0.2500002 -1.40421
vt -0.2500002 -1.089639
vt 0.2499998 -1.40421
vt 0.2499998 -1.089639
vt 0.2500002 -1.152801
vt 0.2500002 -1.341544
vt -0.2499998 -1.152801
vt -0.2499998 -1.341544
vt -0.2500002 -1.383406
vt -0.2500002 -1.068854
vt 0.2499998 -1.383406
vt 0.2499998 -1.068854
vt 0.2500002 -1.13249
vt 0.2500002 -1.321221
vt -0.2499998 -1.13249
vt -0.2499998 -1.321221
vt -0.2500002 -1.343405
vt -0.2500002 -1.028891
vt 0.2499998 -1.343405
vt 0.2499998 -1.028891
vt 0.2500002 -1.092952
vt 0.2500002 -1.28166
vt -0.2499998 -1.092952
vt -0.2499998 -1.28166
vt -0.2500002 -1.28487
vt -0.2500002 -0.9704088
vt 0.2499998 -1.28487
vt 0.2499998 -0.9704088
vt 0.2500002 -1.034821
vt 0.2500002 -1.223498
vt -0.2499998 -1.034821
vt -0.2499998 -1.223498
vt -0.2500002 -1.208744
vt -0.2500002 -0.8943489
vt 0.2499998 -1.208744
vt 0.2499998 -0.8943489
vt 0.2500002 -0.9590123
vt 0.2500002 -1.147649
vt -0.2499998 -0.9590123
vt -0.2499998 -1.147649
vt -0.2500002 -1.11623
vt -0.2500002 -0.8019083
vt 0.2499998 -1.11623
vt 0.2499998 -0.8019083
vt 0.2500002 -0.8667108
vt 0.2500002 -1.055304
vt -0.2499998 -0.8667108
vt -0.2499998 -1.055304
vt 1.00878 -0.2500002
vt 0.6945366 -0.2500002
vt 1.00878 0.2499998
vt 0.6945366 0.2499998
vt -0.7593546 -0.2500002
vt -0.9479007 -0.2500002
vt -0.7593546 0.2499998
vt -0.9479007 0.2499998
vt 0.8880723 -0.2500002
vt 0.5739053 -0.2500002
vt 0.8880723 0.2499998
vt 0.5739053 0.2499998
vt -0.6386157 -0.2500002
vt -0.827116 -0.2500002
vt -0.6386157 0.2499998
vt -0.827116 0.2499998
vt 0.7559867 -0.2500002
vt 0.4418894 -0.2500002
vt 0.7559867 0.2499998
vt 0.4418894 0.2499998
vt -0.5063758 -0.2500002
vt -0.6948342 -0.2500002
vt -0.5063758 0.2499998
vt -0.6948342 0.2499998
vt 0.6145799 -0.2500002
vt 0.3005432 -0.2500002
vt 0.6145799 0.2499998
vt 0.3005432 0.2499998
vt -0.3647032 -0.2500002
vt -0.5531251 -0.2500002
vt -0.3647032 0.2499998
vt -0.5531251 0.2499998
vt 0.466057 -0.2500002
vt 0.1520662 -0.2500002
vt 0.466057 0.2499998
vt 0.1520662 0.2499998
vt -0.2158148 -0.2500002
vt -0.4042093 -0.2500002
vt -0.2158148 0.2499998
vt -0.4042093 0.2499998
vt 0.3127246 -0.2500002
vt -0.001238002 -0.2500002
vt 0.3127246 0.2499998
vt -0.001238002 0.2499998
vt -0.06204602 -0.2500002
vt -0.2504236 -0.2500002
vt -0.06204602 0.2499998
vt -0.2504236 0.2499998
vt 0.1569762 -0.2500002
vt -0.1569762 -0.2500002
vt 0.1569762 0.2499998
vt -0.1569762 0.2499998
vt 0.09418559 -0.2500002
vt -0.09418583 -0.2500002
vt 0.09418559 0.2499998
vt -0.09418583 0.2499998
vt 0.001238002 -0.2500002
vt -0.3127246 -0.2500002
vt 0.001238002 0.2499998
vt -0.3127246 0.2499998
vt 0.2504233 -0.2500002
vt 0.06204578 -0.2500002
vt 0.2504233 0.2499998
vt 0.06204578 0.2499998
vt -0.1520662 -0.2500002
vt -0.466057 -0.2500002
vt -0.1520662 0.2499998
vt -0.466057 0.2499998
vt 0.404209 -0.2500002
vt 0.2158146 -0.2500002
vt 0.404209 0.2499998
vt 0.2158146 0.2499998
vt -0.300543 -0.2500002
vt -0.6145796 -0.2500002
vt -0.300543 0.2499998
vt -0.6145796 0.2499998
vt 0.5531252 -0.2500002
vt 0.3647031 -0.2500002
vt 0.5531252 0.2499998
vt 0.3647031 0.2499998
vt -0.4418904 -0.2500002
vt -0.7559872 -0.2500002
vt -0.4418904 0.2499998
vt -0.7559872 0.2499998
vt 0.506376 -0.2500002
vt 0.506376 0.2499998
vt -0.5739041 -0.2500002
vt -0.8880723 -0.2500002
vt -0.5739041 0.2499998
vt -0.8880723 0.2499998
vt 0.8271162 -0.2500002
vt 0.6386154 -0.2500002
vt 0.8271162 0.2499998
vt 0.6386154 0.2499998
vt -1.008779 -0.2500002
vt -1.008779 0.2499998
vt 0.9479005 -0.2500002
vt 0.7593546 -0.2500002
vt 0.9479005 0.2499998
vt 0.7593546 0.2499998
vt 0.2500002 -0.8019108
vt 0.2500002 -1.116232
vt -0.2499998 -0.8019108
vt -0.2499998 -1.116232
vt -0.2500002 -1.055303
vt -0.2500002 -0.8667104
vt 0.2499998 -1.055303
vt 0.2499998 -0.8667104
vt 0.2500002 -0.8943459
vt 0.2500002 -1.20874
vt -0.2499998 -0.8943459
vt -0.2499998 -1.20874
vt -0.2500002 -1.14765
vt -0.2500002 -0.9590129
vt 0.2499998 -1.14765
vt 0.2499998 -0.9590129
vt 0.2500002 -0.9704091
vt 0.2500002 -1.28487
vt -0.2499998 -0.9704091
vt -0.2499998 -1.28487
vt -0.2500002 -1.223497
vt -0.2500002 -1.034821
vt 0.2499998 -1.223497
vt 0.2499998 -1.034821
vt 0.2500002 -1.028894
vt 0.2500002 -1.343408
vt -0.2499998 -1.028894
vt -0.2499998 -1.343408
vt -0.2500002 -1.28166
vt -0.2500002 -1.092951
vt 0.2499998 -1.28166
vt 0.2499998 -1.092951
vt 0.2500002 -1.06885
vt 0.2500002 -1.383402
vt -0.2499998 -1.06885
vt -0.2499998 -1.383402
vt -0.2500002 -1.321222
vt -0.2500002 -1.132491
vt 0.2499998 -1.321222
vt 0.2499998 -1.132491
vt 0.2500002 -1.089641
vt 0.2500002 -1.404212
vt -0.2499998 -1.089641
vt -0.2499998 -1.404212
vt -0.2500002 -1.341544
vt -0.2500002 -1.152801
vt 0.2499998 -1.341544
vt 0.2499998 -1.152801
vt 1.5 0.2499998
vt 2.5 0.2499998
vt 1.5 -0.2500002
vt 2.5 -0.2500002
vt -2.5 -1.25
vt -2.480287 -0.9360475
vt -1.5 -1.25
vt -1.488172 -1.061628
vt 2.480287 -0.9360475
vt 2.5 -1.25
vt 1.488172 -1.061628
vt 1.5 -1.25
vt -2.421458 -0.6270462
vt -1.452875 -0.8762277
vt 2.421458 -0.6270462
vt 1.452875 -0.8762277
vt -2.324441 -0.3278692
vt -1.394665 -0.6967215
vt 2.324441 -0.3278692
vt 1.394665 -0.6967215
vt -2.190767 -0.04323477
vt -1.31446 -0.5259408
vt 2.190767 -0.04323477
vt 1.31446 -0.5259408
vt -2.022542 0.2223684
vt -1.213526 -0.3665791
vt 2.022542 0.2223684
vt 1.213526 -0.3665791
vt -1.822422 0.4647514
vt -1.093453 -0.2211493
vt 1.822422 0.4647514
vt 1.093453 -0.2211493
vt -1.59356 0.6800915
vt -0.956136 -0.09194517
vt 1.59356 0.6800915
vt 0.956136 -0.09194517
vt -1.339567 0.8649929
vt -0.8037403 0.01899564
vt 1.339567 0.8649929
vt 0.8037403 0.01899564
vt -1.064448 1.01654
vt -0.6386688 0.1099241
vt 1.064448 1.01654
vt 0.6386688 0.1099241
vt -0.7725425 1.132342
vt -0.4635255 0.1794053
vt 0.7725425 1.132342
vt 0.4635255 0.1794053
vt -0.4684534 1.210573
vt -0.2810721 0.2263439
vt 0.4684534 1.210573
vt 0.2810721 0.2263439
vt -0.1569762 1.25
vt 0.1569762 1.25

vn 0 -1 0
vn -0.9980345 0.06266686 0
vn -0.9921452 0.1250916 0
vn 0.9921452 -0.1250916 0
vn 0.9980345 -0.06266709 0
vn -0.9687003 0.2482332 0
vn 0.9687003 -0.248233 0
vn -0.930023 0.3675013 0
vn 0.930023 -0.3675013 0
vn -0.8767048 0.4810289 0
vn 0.8767047 -0.481029 0
vn -0.8095642 0.5870314 0
vn 0.8095642 -0.5870314 0
vn -0.7296376 0.6838341 0
vn 0.7296376 -0.6838341 0
vn -0.6381652 0.7698994 0
vn 0.6381652 -0.7698994 0
vn -0.5365755 0.8438523 0
vn 0.5365757 -0.8438522 0
vn -0.4264631 0.904505 0
vn 0.4264632 -0.904505 0
vn -0.3095649 0.9508783 0
vn 0.3095648 -0.9508784 0
vn -0.1877355 0.9822196 0
vn 0.1877355 -0.9822196 0
vn -0.06291327 0.998019 0
vn 0.06291314 -0.998019 0
vn 0.06291327 0.998019 0
vn -0.06291314 -0.998019 0
vn 0.1877355 0.9822196 0
vn -0.1877355 -0.9822196 0
vn 0.309565 0.9508783 0
vn -0.3095646 -0.9508784 0
vn 0.4264628 0.9045051 0
vn -0.4264627 -0.9045052 0
vn 0.5365753 0.8438525 0
vn -0.5365755 -0.8438523 0
vn 0.6381657 0.7698991 0
vn -0.6381654 -0.7698993 0
vn 0.7296374 0.6838342 0
vn -0.7296379 -0.6838338 0
vn 0.8095643 0.5870312 0
vn -0.8095641 -0.5870315 0
vn 0.8767051 0.4810283 0
vn -0.8767046 -0.4810293 0
vn 0.9300227 0.3675022 0
vn -0.9300231 -0.367501 0
vn 0.9687003 0.2482331 0
vn -0.9687003 -0.248233 0
vn 0.9921452 0.1250911 0
vn -0.9823552 -0.187025 0
vn 0.9980345 0.06266757 0
vn -0.9980345 -0.06266706 0
vn 0 0 1
vn 0 0 -1

usemtl ProBuilderDefault
f 3/3/1 4/4/1 2/2/1 1/1/1
f 1/7/2 6/8/3 5/6/3 3/5/2
f 8/11/4 2/12/5 4/10/5 7/9/4
f 6/15/3 10/16/6 9/14/6 5/13/3
f 12/19/7 8/20/4 7/18/4 11/17/7
f 10/23/6 14/24/8 13/22/8 9/21/6
f 16/27/9 12/28/7 11/26/7 15/25/9
f 14/31/8 18/32/10 17/30/10 13/29/8
f 20/35/11 16/36/9 15/34/9 19/33/11
f 18/39/10 22/40/12 21/38/12 17/37/10
f 24/43/13 20/44/11 19/42/11 23/41/13
f 22/47/12 26/48/14 25/46/14 21/45/12
f 28/51/15 24/52/13 23/50/13 27/49/15
f 26/55/14 30/56/16 29/54/16 25/53/14
f 32/59/17 28/60/15 27/58/15 31/57/17
f 30/63/16 34/64/18 33/62/18 29/61/16
f 36/67/19 32/68/17 31/66/17 35/65/19
f 34/71/18 38/72/20 37/70/20 33/69/18
f 40/75/21 36/76/19 35/74/19 39/73/21
f 38/79/20 42/80/22 41/78/22 37/77/20
f 44/83/23 40/84/21 39/82/21 43/81/23
f 42/87/22 46/88/24 45/86/24 41/85/22
f 48/91/25 44/92/23 43/90/23 47/89/25
f 46/95/24 50/96/26 49/94/26 45/93/24
f 52/99/27 48/100/25 47/98/25 51/97/27
f 50/103/26 54/104/28 53/102/28 49/101/26
f 56/107/29 52/108/27 51/106/27 55/105/29
f 54/111/28 58/112/30 57/110/30 53/109/28
f 60/115/31 56/116/29 55/114/29 59/113/31
f 58/119/30 62/120/32 61/118/32 57/117/30
f 64/123/33 60/124/31 59/122/31 63/121/33
f 62/127/32 66/128/34 65/126/34 61/125/32
f 68/131/35 64/132/33 63/130/33 67/129/35
f 66/135/34 70/136/36 69/134/36 65/133/34
f 72/56/37 68/138/35 67/137/35 71/54/37
f 70/141/36 74/142/38 73/140/38 69/139/36
f 76/145/39 72/146/37 71/144/37 75/143/39
f 74/76/38 78/148/40 77/147/40 73/74/38
f 80/151/41 76/152/39 75/150/39 79/149/41
f 78/155/40 82/156/42 81/154/42 77/153/40
f 84/159/43 80/160/41 79/158/41 83/157/43
f 82/163/42 86/164/44 85/162/44 81/161/42
f 88/167/45 84/168/43 83/166/43 87/165/45
f 86/171/44 90/172/46 89/170/46 85/169/44
f 92/175/47 88/176/45 87/174/45 91/173/47
f 90/179/46 94/180/48 93/178/48 89/177/46
f 96/183/49 92/184/47 91/182/47 95/181/49
f 94/187/48 98/188/50 97/186/50 93/185/48
f 100/191/51 96/192/49 95/190/49 99/189/51
f 98/195/50 102/196/52 101/194/52 97/193/50
f 104/199/53 100/200/53 99/198/53 103/197/53
f 103/203/1 101/204/1 102/202/1 104/201/1
f 2/207/54 8/208/54 6/206/54 1/205/54
f 7/211/55 4/212/55 3/210/55 5/209/55
f 8/208/54 12/214/54 10/213/54 6/206/54
f 11/216/55 7/211/55 5/209/55 9/215/55
f 12/214/54 16/218/54 14/217/54 10/213/54
f 15/220/55 11/216/55 9/215/55 13/219/55
f 16/218/54 20/222/54 18/221/54 14/217/54
f 19/224/55 15/220/55 13/219/55 17/223/55
f 20/222/54 24/226/54 22/225/54 18/221/54
f 23/228/55 19/224/55 17/223/55 21/227/55
f 24/226/54 28/230/54 26/229/54 22/225/54
f 27/232/55 23/228/55 21/227/55 25/231/55
f 28/230/54 32/234/54 30/233/54 26/229/54
f 31/236/55 27/232/55 25/231/55 29/235/55
f 32/234/54 36/238/54 34/237/54 30/233/54
f 35/240/55 31/236/55 29/235/55 33/239/55
f 36/238/54 40/242/54 38/241/54 34/237/54
f 39/244/55 35/240/55 33/239/55 37/243/55
f 40/242/54 44/246/54 42/245/54 38/241/54
f 43/248/55 39/244/55 37/243/55 41/247/55
f 44/246/54 48/250/54 46/249/54 42/245/54
f 47/252/55 43/248/55 41/247/55 45/251/55
f 48/250/54 52/108/54 50/253/54 46/249/54
f 51/107/55 47/252/55 45/251/55 49/254/55
f 52/108/54 56/107/54 54/254/54 50/253/54
f 55/108/55 51/107/55 49/254/55 53/253/55
f 56/107/54 60/252/54 58/251/54 54/254/54
f 59/250/55 55/108/55 53/253/55 57/249/55
f 60/252/54 64/248/54 62/247/54 58/251/54
f 63/246/55 59/250/55 57/249/55 61/245/55
f 64/248/54 68/244/54 66/243/54 62/247/54
f 67/242/55 63/246/55 61/245/55 65/241/55
f 68/244/54 72/240/54 70/239/54 66/243/54
f 71/238/55 67/242/55 65/241/55 69/237/55
f 72/240/54 76/236/54 74/235/54 70/239/54
f 75/234/55 71/238/55 69/237/55 73/233/55
f 76/236/54 80/232/54 78/231/54 74/235/54
f 79/230/55 75/234/55 73/233/55 77/229/55
f 80/232/54 84/228/54 82/227/54 78/231/54
f 83/226/55 79/230/55 77/229/55 81/225/55
f 84/228/54 88/224/54 86/223/54 82/227/54
f 87/222/55 83/226/55 81/225/55 85/221/55
f 88/224/54 92/220/54 90/219/54 86/223/54
f 91/218/55 87/222/55 85/221/55 89/217/55
f 92/220/54 96/216/54 94/215/54 90/219/54
f 95/214/55 91/218/55 89/217/55 93/213/55
f 96/216/54 100/211/54 98/209/54 94/215/54
f 99/208/55 95/214/55 93/213/55 97/206/55
f 100/211/54 104/212/54 102/210/54 98/209/54
f 103/207/55 99/208/55 97/206/55 101/205/55

