# ProBuilder 5.0.6
# https://unity3d.com/unity/features/worldbuilding/probuilder
# 23.07.2022 19:26:09

mtllib ./Arch_45.mtl
o Arch_45

g Arch_45
v -0.875 -0.95 0.25
v 0.1352567 -0.95 0.25
v -0.875 -0.95 -0.25
v 0.1352567 -0.95 -0.25
v -0.8640999 -0.7391799 -0.25
v -0.8640999 -0.7391799 0.25
v 0.1430424 -0.7946589 -0.25
v 0.1430424 -0.7946589 0.25
v -0.8314672 -0.5296596 -0.25
v -0.8314672 -0.5296596 0.25
v 0.1663515 -0.6402755 -0.25
v 0.1663515 -0.6402755 0.25
v -0.7773027 -0.322731 -0.25
v -0.7773027 -0.322731 0.25
v 0.2050403 -0.4878018 -0.25
v 0.2050403 -0.4878018 0.25
v -0.7019409 -0.1196696 -0.25
v -0.7019409 -0.1196696 0.25
v 0.2588702 -0.3381775 -0.25
v 0.2588702 -0.3381775 0.25
v -0.6058456 0.07827268 -0.25
v -0.6058456 0.07827268 0.25
v 0.3275097 -0.1923254 -0.25
v 0.3275097 -0.1923254 0.25
v -0.4896102 0.269875 -0.25
v -0.4896102 0.269875 0.25
v 0.410535 -0.05114469 -0.25
v 0.410535 -0.05114469 0.25
v -0.3539505 0.4539566 -0.25
v -0.3539505 0.4539566 0.25
v 0.5074348 0.08449432 -0.25
v 0.5074348 0.08449432 0.25
v -0.1997034 0.6293823 -0.25
v -0.1997034 0.6293823 0.25
v 0.6176113 0.2137554 -0.25
v 0.6176113 0.2137554 0.25
v -0.02781979 0.7950705 -0.25
v -0.02781979 0.7950705 0.25
v 0.7403854 0.3358415 -0.25
v 0.7403854 0.3358415 0.25
v 0.1606406 0.95 -0.25
v 0.1606406 0.95 0.25
v 0.875 0.45 -0.25
v 0.875 0.45 0.25

vt -0.875 0.25
vt 0.1352567 0.25
vt -0.875 -0.25
vt 0.1352567 -0.25
vt -0.25 -0.9939127
vt -0.25 -0.782811
vt 0.25 -0.9939127
vt 0.25 -0.782811
vt 0.25 -0.7865024
vt 0.25 -0.9420385
vt -0.25 -0.7865024
vt -0.25 -0.9420385
vt -0.25 -0.8633543
vt -0.25 -0.6513079
vt 0.25 -0.8633543
vt 0.25 -0.6513079
vt 0.25 -0.6082656
vt 0.25 -0.7643987
vt -0.25 -0.6082656
vt -0.25 -0.7643987
vt -0.25 -0.7229438
vt -0.25 -0.5090437
vt 0.25 -0.7229438
vt 0.25 -0.5090437
vt 0.25 -0.4223892
vt 0.25 -0.5796949
vt -0.25 -0.4223892
vt -0.25 -0.5796949
vt -0.25 -0.5730197
vt -0.25 -0.3564249
vt 0.25 -0.5730197
vt 0.25 -0.3564249
vt 0.25 -0.2305763
vt 0.25 -0.3895891
vt -0.25 -0.2305763
vt -0.25 -0.3895891
vt -0.25 -0.4142107
vt -0.25 -0.1941756
vt 0.25 -0.4142107
vt 0.25 -0.1941756
vt 0.25 -0.03456019
vt 0.25 -0.1957564
vt -0.25 -0.03456019
vt -0.25 -0.1957564
vt -0.25 -0.2473125
vt -0.25 -0.0232096
vt 0.25 -0.2473125
vt 0.25 -0.0232096
vt 0.25 0.1640219
vt 0.25 0.0002378612
vt -0.25 0.1640219
vt -0.25 0.0002378612
vt -0.25 -0.07321204
vt -0.25 0.1554571
vt 0.25 -0.07321204
vt 0.25 0.1554571
vt 0.25 0.3637227
vt 0.25 0.1970268
vt -0.25 0.3637227
vt -0.25 0.1970268
vt -0.25 0.1071936
vt -0.25 0.3407879
vt 0.25 0.1071936
vt 0.25 0.3407879
vt 0.25 0.5633168
vt 0.25 0.393472
vt -0.25 0.5633168
vt -0.25 0.393472
vt -0.29302 -0.25
vt -0.5317596 -0.25
vt -0.29302 0.25
vt -0.5317596 0.25
vt 0.761808 -0.25
vt 0.5886651 -0.25
vt 0.761808 0.25
vt 0.5886651 0.25
vt -0.4834111 -0.25
vt -0.7273793 -0.25
vt -0.4834111 0.25
vt -0.7273793 0.25
vt 0.9583931 -0.25
vt 0.7818903 -0.25
vt 0.9583931 0.25
vt 0.7818903 0.25
vt -0.4588121 0.25
vt 0.4131452 0.25
vt -0.4588121 -0.25
vt 0.4131452 -0.25
vt -0.875 -0.95
vt -0.8640999 -0.7391799
vt 0.1352567 -0.95
vt 0.1430424 -0.7946589
vt 0.8640999 -0.7391799
vt 0.875 -0.95
vt -0.1430424 -0.7946589
vt -0.1352567 -0.95
vt -0.8314672 -0.5296596
vt 0.1663515 -0.6402755
vt 0.8314672 -0.5296596
vt -0.1663515 -0.6402755
vt -0.7773027 -0.322731
vt 0.2050403 -0.4878018
vt 0.7773027 -0.322731
vt -0.2050403 -0.4878018
vt -0.7019409 -0.1196696
vt 0.2588702 -0.3381775
vt 0.7019409 -0.1196696
vt -0.2588702 -0.3381775
vt -0.6058456 0.07827268
vt 0.3275097 -0.1923254
vt 0.6058456 0.07827268
vt -0.3275097 -0.1923254
vt -0.4896102 0.269875
vt 0.410535 -0.05114469
vt 0.4896102 0.269875
vt -0.410535 -0.05114469
vt -0.3539505 0.4539566
vt 0.5074348 0.08449432
vt 0.3539505 0.4539566
vt -0.5074348 0.08449432
vt -0.1997034 0.6293823
vt 0.6176113 0.2137554
vt 0.1997034 0.6293823
vt -0.6176113 0.2137554
vt -0.02781979 0.7950705
vt 0.7403854 0.3358415
vt 0.02781979 0.7950705
vt -0.7403854 0.3358415
vt 0.1606406 0.95
vt 0.875 0.45
vt -0.1606406 0.95
vt -0.875 0.45

vn 0 -1 0
vn -0.998666 0.05163427 0
vn -0.9946917 0.1029003 0
vn 0.9950078 -0.09979774 0
vn 0.9987464 -0.05005706 0
vn -0.9790081 0.2038213 0
vn 0.9802305 -0.1978589 0
vn -0.9536391 0.3009525 0
vn 0.9562413 -0.2925792 0
vn -0.9196278 0.392791 0
vn 0.9239154 -0.3825967 0
vn -0.8782406 0.4782191 0
vn 0.8843325 -0.4668576 0
vn -0.8308312 0.5565245 0
vn 0.8386673 -0.5446441 0
vn -0.7787208 0.6273707 0
vn 0.7880933 -0.6155557 0
vn -0.7231135 0.6907292 0
vn 0.7337074 -0.6794655 0
vn -0.6650447 0.7468036 0
vn 0.7051173 -0.7090907 0
vn -0.6350397 0.7724795 0
vn 0.6467797 -0.7626769 0
vn 0.5734227 0.8192597 0
vn 0 0 1
vn 0 0 -1

usemtl ProBuilderDefault
f 3/3/1 4/4/1 2/2/1 1/1/1
f 1/7/2 6/8/3 5/6/3 3/5/2
f 8/11/4 2/12/5 4/10/5 7/9/4
f 6/15/3 10/16/6 9/14/6 5/13/3
f 12/19/7 8/20/4 7/18/4 11/17/7
f 10/23/6 14/24/8 13/22/8 9/21/6
f 16/27/9 12/28/7 11/26/7 15/25/9
f 14/31/8 18/32/10 17/30/10 13/29/8
f 20/35/11 16/36/9 15/34/9 19/33/11
f 18/39/10 22/40/12 21/38/12 17/37/10
f 24/43/13 20/44/11 19/42/11 23/41/13
f 22/47/12 26/48/14 25/46/14 21/45/12
f 28/51/15 24/52/13 23/50/13 27/49/15
f 26/55/14 30/56/16 29/54/16 25/53/14
f 32/59/17 28/60/15 27/58/15 31/57/17
f 30/63/16 34/64/18 33/62/18 29/61/16
f 36/67/19 32/68/17 31/66/17 35/65/19
f 34/71/18 38/72/20 37/70/20 33/69/18
f 40/75/21 36/76/19 35/74/19 39/73/21
f 38/79/20 42/80/22 41/78/22 37/77/20
f 44/83/23 40/84/23 39/82/23 43/81/23
f 43/87/24 41/88/24 42/86/24 44/85/24
f 2/91/25 8/92/25 6/90/25 1/89/25
f 7/95/26 4/96/26 3/94/26 5/93/26
f 8/92/25 12/98/25 10/97/25 6/90/25
f 11/100/26 7/95/26 5/93/26 9/99/26
f 12/98/25 16/102/25 14/101/25 10/97/25
f 15/104/26 11/100/26 9/99/26 13/103/26
f 16/102/25 20/106/25 18/105/25 14/101/25
f 19/108/26 15/104/26 13/103/26 17/107/26
f 20/106/25 24/110/25 22/109/25 18/105/25
f 23/112/26 19/108/26 17/107/26 21/111/26
f 24/110/25 28/114/25 26/113/25 22/109/25
f 27/116/26 23/112/26 21/111/26 25/115/26
f 28/114/25 32/118/25 30/117/25 26/113/25
f 31/120/26 27/116/26 25/115/26 29/119/26
f 32/118/25 36/122/25 34/121/25 30/117/25
f 35/124/26 31/120/26 29/119/26 33/123/26
f 36/122/25 40/126/25 38/125/25 34/121/25
f 39/128/26 35/124/26 33/123/26 37/127/26
f 40/126/25 44/130/25 42/129/25 38/125/25
f 43/132/26 39/128/26 37/127/26 41/131/26

